# xmcd
#
# Track frame offsets:
#	150
#	13825
#	30514
#	47678
#	64385
#	78869
#	94160
#	113593
#	132449
#	148118
#	163177
#	178443
#	201339
#	202156
#	203011
#	203849
#	204986
#	205986
#	206891
#	207774
#
# Disc length: 2777 seconds
#
# Revision: 1
# Processed by: cddbd v1.5.2PL0 Copyright (c) Steve Scherf et al.
# Submitted via: audiograbber 1.83.01
#
DISCID=3a0ad714
DTITLE=Various Artist - CDX Volume 609 (November 24, 2014)
DYEAR=2014
DGENRE=Country
TTITLE0=Dylan Scott - Lay It On Me
TTITLE1=Blake Shelton (featuring Ashley Monroe) - Lonely Tonight
TTITLE2=Josh Dorr - Save Your Breath [Single Edit]
TTITLE3=Sam Hunt - Take Your Time [Radio Edit]
TTITLE4=Vince Hatfield - Pray For Me
TTITLE5=Jacob Martin Band - Take It To The Moonlight
TTITLE6=Teea Goans - All I Want for Christmas Is You 
TTITLE7=Billy Dawson - Christmas With Jesus
TTITLE8=Larry Weiss - Christmas Without You
TTITLE9=Rusty Rierson - Crazy Christmas Tango
TTITLE10=Batson Haines - Santa's Having a Tailgate
TTITLE11=Teea Goans - They Saw A King 
TTITLE12=Crab Apple Lane - Radio Liner - Hometown Country
TTITLE13=Crab Apple Lane - Radio Liner - Kickin' Country
TTITLE14=Crab Apple Lane - Radio Liner - More Of The Country You Love
TTITLE15=Crab Apple Lane - Radio Liner - Our New Single
TTITLE16=Crab Apple Lane - Radio Liner - Super Country
TTITLE17=Crab Apple Lane - Radio Liner - The Best In Country
TTITLE18=Crab Apple Lane - Radio Liner - Today's Best Country
TTITLE19=Crab Apple Lane - Radio Liner - Today's Hot Country Music
EXTD=
EXTT0=
EXTT1=
EXTT2=
EXTT3=
EXTT4=
EXTT5=
EXTT6=
EXTT7=
EXTT8=
EXTT9=
EXTT10=
EXTT11=
EXTT12=
EXTT13=
EXTT14=
EXTT15=
EXTT16=
EXTT17=
EXTT18=
EXTT19=
PLAYORDER=
